<svg enable-background="new 0 0 512.001 512.001" viewBox="0 0 512.001 512.001" xmlns="http://www.w3.org/2000/svg"><path d="m452.729 499.439h-393.458c-32.735 0-59.271-26.537-59.271-59.271v-368.334c0-32.734 26.536-59.271 59.271-59.271h393.459c32.734 0 59.271 26.536 59.271 59.271v368.334c-.001 32.734-26.537 59.271-59.272 59.271z" fill="#76b7eb"/><path d="m0 286.48v153.688c0 32.734 26.536 59.271 59.271 59.271h393.459c32.734 0 59.271-26.536 59.271-59.271v-153.688z" fill="#b3e7ff"/><path d="m328.116 141.989h-144.232c-8.229 0-14.901-6.671-14.901-14.901v-56.74c0-8.229 6.671-14.901 14.901-14.901h144.231c8.229 0 14.901 6.671 14.901 14.901v56.74c0 8.23-6.671 14.901-14.9 14.901z" fill="#fff"/><path d="m311.639 141.989c0-30.728-24.91-55.639-55.639-55.639s-55.639 24.91-55.639 55.639z" fill="#7fdbd5"/><path d="m255.993 149.49c-1.304 0-2.626-.34-3.828-1.056-3.56-2.118-4.728-6.721-2.61-10.28l31.769-53.387c2.118-3.561 6.719-4.729 10.281-2.61 3.56 2.118 4.728 6.721 2.61 10.28l-31.769 53.387c-1.403 2.358-3.896 3.666-6.453 3.666z" fill="#495059"/><path d="m328.116 149.489h-144.232c-12.352 0-22.4-10.049-22.4-22.4v-56.739c0-12.353 10.049-22.401 22.4-22.401h144.231c12.352 0 22.4 10.049 22.4 22.401v56.739c.001 12.35-10.048 22.4-22.399 22.4zm-144.232-86.541c-4.081 0-7.4 3.32-7.4 7.401v56.739c0 4.081 3.32 7.4 7.4 7.4h144.231c4.081 0 7.4-3.319 7.4-7.4v-56.738c0-4.081-3.32-7.401-7.4-7.401z" fill="#b3e7ff"/><path d="m130.804 437.549c-34.233-35.173-69.327-96.673-57.036-188.748 4.219-31.604 27.22-60.798 60.798-60.798s56.434 24.632 60.798 60.798c3.457 28.654-3.847 47.86-9.755 72.686-8.161 34.29 12.797 57.39 12.797 88.06 0 21.871-17.73 39.6-39.6 39.6-10.936.001-20.836-4.432-28.002-11.598z" fill="#38648c"/><path d="m158.805 434.148c-6.541 0-12.691-2.535-17.33-7.141-18.843-19.383-33.163-42.153-42.559-67.676-12.062-32.764-15.521-69.284-10.279-108.546 3.169-23.744 19.964-47.782 45.929-47.782 25.149 0 42.31 17.792 45.906 47.595 2.505 20.762-1.327 35.595-6.178 54.374-1.08 4.179-2.196 8.499-3.277 13.042-5.722 24.042.396 43.305 5.793 60.301 3.392 10.682 6.596 20.771 6.596 31.233-.001 13.564-11.036 24.6-24.601 24.6z" opacity=".1"/><path d="m381.196 437.549c34.233-35.173 69.327-96.673 57.035-188.748-4.219-31.604-27.22-60.798-60.798-60.798s-56.433 24.632-60.797 60.798c-3.458 28.654 3.846 47.86 9.755 72.686 8.161 34.29-12.796 57.39-12.796 88.06 0 21.871 17.729 39.6 39.6 39.6 10.935.001 20.835-4.432 28.001-11.598z" fill="#38648c"/><path d="m353.195 434.148c-13.564 0-24.6-11.035-24.6-24.6 0-10.463 3.204-20.552 6.596-31.233 5.398-16.996 11.515-36.259 5.793-60.3-1.082-4.544-2.198-8.864-3.277-13.043-4.852-18.779-8.684-33.612-6.178-54.374 3.596-29.803 20.757-47.595 45.906-47.595 25.965 0 42.76 24.038 45.929 47.782 5.241 39.262 1.783 75.782-10.279 108.546-9.396 25.522-23.716 48.293-42.559 67.676-4.64 4.605-10.791 7.141-17.331 7.141z" opacity=".1"/><path d="m0 414.926v25.242c0 32.734 26.536 59.271 59.271 59.271h25.242c-.001-46.675-37.838-84.513-84.513-84.513z" fill="#38648c"/><path d="m512 414.926v25.242c0 32.734-26.536 59.271-59.271 59.271h-25.242c.001-46.675 37.838-84.513 84.513-84.513z" fill="#38648c"/><g fill="#b3e7ff"><circle cx="114.31" cy="72.681" r="15.399"/><circle cx="56.856" cy="72.681" r="15.399"/><circle cx="114.31" cy="125.331" r="15.399"/><circle cx="56.856" cy="125.331" r="15.399"/><circle cx="397.69" cy="72.681" r="15.399"/><circle cx="455.14" cy="72.681" r="15.399"/><circle cx="397.69" cy="125.331" r="15.399"/><circle cx="455.14" cy="125.331" r="15.399"/></g><path d="m305.633 499.439c-181.596-101.705-231.294-386.975-177.841-486.876h-68.521c-32.735 0-59.271 26.537-59.271 59.271v368.334c0 32.734 26.536 59.271 59.271 59.271z" opacity=".1"/></svg>