<svg width="1024" height="1024" viewBox="0 0 1024 1024" fill="none" xmlns="http://www.w3.org/2000/svg">
<path d="M0 228.189C0 102.164 102.164 0 228.189 0H795.81C921.836 0 1024 102.164 1024 228.189V795.81C1024 921.836 921.836 1024 795.81 1024H228.189C102.164 1024 0 921.836 0 795.81V228.189Z" fill="black"/>
<path fill-rule="evenodd" clip-rule="evenodd" d="M670.023 195.134C533.272 190.356 457.854 193.996 327.276 220.112C282.872 228.438 289.81 264.516 327.276 264.516H353.641C392.495 260.353 380.006 292.269 361.967 292.269C212.102 300.595 177.012 315.867 171.86 383.853C174.673 557.652 180.622 648.736 209.327 784.881C215.559 811.799 237.465 814.543 266.999 818.242C270.346 818.661 273.79 819.092 277.321 819.572C476.188 834.957 582.687 832.648 768.545 819.572C808.787 816.393 833.764 771.005 836.54 730.763C855.967 598.937 857.557 517.07 849.029 383.853C843.478 325.572 818.5 292.269 757.444 286.719L632.557 278.393C606.192 278.393 603.416 246.477 627.006 246.477H670.023C692.225 246.477 721.366 195.134 670.023 195.134ZM411.955 380.548L426.238 724.023L500.667 720.928L497.04 633.686L513.851 617.016L578.18 717.705L660.317 714.29L561.765 570.376L653.695 480.783L558.126 484.757L493.509 548.778L486.385 377.453L411.955 380.548Z" fill="white"/>
</svg>
